<?xml version="1.0" standalone="no"?>
<!DOCTYPE svg PUBLIC "-//W3C//DTD SVG 20010904//EN"
 "http://www.w3.org/TR/2001/REC-SVG-20010904/DTD/svg10.dtd">
<svg version="1.0" xmlns="http://www.w3.org/2000/svg"
 width="3334.000000pt" height="3334.000000pt" viewBox="0 0 3334.000000 3334.000000"
 preserveAspectRatio="xMidYMid meet">

<g transform="translate(0.000000,3334.000000) scale(0.100000,-0.100000)"
fill="#000000" stroke="none">
<path d="M2246 22886 c-85 -32 -140 -98 -157 -190 -36 -196 163 -574 465 -885
220 -225 468 -420 873 -684 l131 -85 -94 281 c-121 357 -185 520 -289 732
-184 376 -448 695 -663 802 -61 30 -85 37 -150 40 -51 2 -90 -2 -116 -11z"/>
<path d="M5418 21077 c-100 -38 -166 -133 -252 -365 -211 -569 -353 -1182
-416 -1794 -11 -109 -20 -201 -19 -205 0 -5 9 25 19 65 55 209 208 468 478
810 288 365 372 486 457 664 180 375 151 693 -72 808 -53 27 -145 35 -195 17z"/>
<path d="M4000 20350 c6 -11 13 -20 16 -20 2 0 0 9 -6 20 -6 11 -13 20 -16 20
-2 0 0 -9 6 -20z"/>
<path d="M4030 20300 c6 -11 13 -20 16 -20 2 0 0 9 -6 20 -6 11 -13 20 -16 20
-2 0 0 -9 6 -20z"/>
<path d="M4065 20240 c9 -16 18 -30 21 -30 2 0 -2 14 -11 30 -9 17 -18 30 -21
30 -2 0 2 -13 11 -30z"/>
<path d="M4172 20040 c250 -493 352 -867 365 -1345 11 -413 -49 -854 -207
-1516 -241 -1008 -305 -1746 -224 -2600 133 -1416 656 -2761 1478 -3807 31
-39 54 -72 51 -72 -4 0 -374 187 -823 417 -1326 676 -1365 694 -1571 724 -217
31 -414 -33 -488 -158 -24 -41 -28 -59 -28 -123 0 -64 5 -84 32 -136 42 -81
110 -150 217 -219 226 -147 541 -259 896 -319 180 -30 324 -47 745 -86 504
-47 773 -90 1034 -165 64 -18 117 -32 119 -31 1 2 -10 16 -25 32 -40 43 -200
247 -274 349 -350 481 -670 1090 -894 1698 -262 713 -408 1408 -456 2167 -15
241 -6 870 15 1080 32 311 97 698 176 1043 22 97 58 256 80 353 83 365 137
693 161 972 15 182 7 569 -16 712 -54 350 -161 662 -351 1030 -42 80 -80 150
-85 155 -6 6 27 -64 73 -155z"/>
<path d="M3283 18781 c-159 -40 -196 -265 -76 -471 50 -86 118 -166 308 -360
105 -107 211 -220 236 -250 101 -121 185 -271 245 -435 36 -99 38 -99 24 -5
-5 36 -16 191 -24 346 -28 500 -68 679 -202 881 -130 196 -364 330 -511 294z"/>
<path d="M2075 16991 c-46 -20 -111 -88 -130 -135 -66 -158 18 -381 219 -582
104 -104 198 -174 448 -335 237 -153 306 -202 448 -318 284 -233 573 -557 767
-864 31 -48 58 -86 60 -84 7 7 -101 243 -202 442 -326 641 -748 1221 -1243
1707 -186 184 -261 218 -367 169z"/>
<path d="M5368 16627 c-128 -45 -224 -129 -358 -317 -352 -491 -574 -1095
-630 -1718 -15 -157 -8 -568 11 -717 l13 -100 22 110 c43 219 99 384 191 569
115 229 227 387 528 741 303 357 427 530 534 743 127 254 139 483 32 612 -74
91 -215 122 -343 77z"/>
<path d="M2512 14280 c-74 -38 -129 -100 -163 -187 -34 -84 -34 -240 0 -338
113 -335 459 -714 906 -994 138 -86 438 -234 630 -310 164 -65 604 -216 610
-209 2 2 -33 30 -78 63 -45 33 -134 112 -198 175 -201 199 -377 438 -644 875
-346 565 -546 810 -742 907 -78 39 -94 43 -172 46 -80 3 -90 1 -149 -28z"/>
<path d="M5600 14221 c-143 -44 -257 -206 -368 -521 -266 -762 -218 -1650 129
-2378 50 -106 156 -302 163 -302 1 0 -8 40 -20 90 -47 189 -59 309 -58 575 0
479 64 785 349 1685 123 390 128 408 129 520 1 127 -20 185 -94 262 -70 71
-146 94 -230 69z"/>
</g>
</svg>
